# xmcd
#
# Track frame offsets: 
#        183
#        1303
#        22523
#        43820
#        68745
#        91758
#        112758
#        132808
#        134583
#        154883
#        176790
#        187765
#
# Disc length: 2843 seconds
#
# Revision: 1
# Processed by: cddbd v1.5.2PL0 Copyright (c) Steve Scherf et al.
# Submitted via: ExactAudioCopy v1.3
#
DISCID=8b0b190c
DTITLE=Zucchero Sugar Fornaciari - Blue's
DYEAR=1987
DGENRE=Blues/Pop
TTITLE0=Zuchero -01- Blue's Introduction
TTITLE1=Zuchero -02- Con Le Mani
TTITLE2=Zuchero -03- Pippo
TTITLE3=Zuchero -04- Dune Mosse
TTITLE4=Zuchero -05- Bambino Io, Bambino Tu
TTITLE5=Zuchero -06- Non Ti Sopporto Piu
TTITLE6=Zuchero -07- Senza Una Donna
TTITLE7=Zuchero -08- Into The Groove
TTITLE8=Zuchero -09- Hey Man
TTITLE9=Zuchero -10- Solo Una Sana 
TTITLE10=Zuchero -11- Hai Scelto Me
TTITLE11=Zuchero -12- Dune Mosse
EXTD=
EXTT0=
EXTT1=
EXTT2=
EXTT3=
EXTT4=
EXTT5=
EXTT6=
EXTT7=
EXTT8=
EXTT9=
EXTT10=
EXTT11=
PLAYORDER=
